<svg width="24" height="25" viewBox="0 0 24 25" fill="none" xmlns="http://www.w3.org/2000/svg">
<g clip-path="url(#clip0_329_1484)">
<path d="M24 12.2415C24 5.61408 18.6274 0.241455 12 0.241455C5.37262 0.241455 0 5.61408 0 12.2415C0 18.231 4.38825 23.1955 10.125 24.0957V15.7102H7.07812V12.2415H10.125V9.59771C10.125 6.59021 11.9166 4.92896 14.6576 4.92896C15.9705 4.92896 17.3438 5.16333 17.3438 5.16333V8.11646H15.8306C14.3399 8.11646 13.875 9.04149 13.875 9.99052V12.2415H17.2031L16.6711 15.7102H13.875V24.0957C19.6117 23.1955 24 18.231 24 12.2415Z" fill="#1877F2"/>
<path d="M16.6711 15.7102L17.2031 12.2415H13.875V9.99052C13.875 9.04139 14.3399 8.11646 15.8306 8.11646H17.3438V5.16333C17.3438 5.16333 15.9705 4.92896 14.6575 4.92896C11.9166 4.92896 10.125 6.59021 10.125 9.59771V12.2415H7.07812V15.7102H10.125V24.0957C10.7453 24.1929 11.3722 24.2416 12 24.2415C12.6278 24.2416 13.2547 24.1929 13.875 24.0957V15.7102H16.6711Z" fill="white"/>
</g>
<defs>
<clipPath id="clip0_329_1484">
<rect width="24" height="24" fill="white" transform="translate(0 0.241455)"/>
</clipPath>
</defs>
</svg>
