<svg width="20" height="23" viewBox="0 0 20 23" fill="none" xmlns="http://www.w3.org/2000/svg">
<g clip-path="url(#clip0_329_1478)">
<path d="M14.8219 8.17942C16.2811 9.22475 18.0687 9.83981 19.9994 9.83981V6.11673C19.634 6.11681 19.2696 6.07858 18.9121 6.00268V8.93328C16.9815 8.93328 15.1941 8.31831 13.7346 7.27305V14.8709C13.7346 18.6717 10.6599 21.7527 6.8674 21.7527C5.45232 21.7527 4.13701 21.3239 3.04443 20.5887C4.29146 21.8665 6.03053 22.6591 7.95443 22.6591C11.7472 22.6591 14.822 19.5782 14.822 15.7772V8.17942H14.8219ZM16.1633 4.42329C15.4175 3.60684 14.9278 2.55172 14.8219 1.38521V0.906372H13.7915C14.0508 2.38895 14.9356 3.65556 16.1633 4.42329ZM5.44318 17.6721C5.02654 17.1246 4.80131 16.4549 4.80232 15.7663C4.80232 14.0279 6.20865 12.6185 7.94373 12.6185C8.26703 12.6183 8.58842 12.668 8.89662 12.766V8.9596C8.53647 8.91018 8.17303 8.88911 7.80975 8.89686V11.8595C7.50141 11.7615 7.17984 11.7118 6.85639 11.7121C5.12139 11.7121 3.71514 13.1214 3.71514 14.86C3.71514 16.0893 4.41803 17.1536 5.44318 17.6721Z" fill="#FF004F"/>
<path d="M13.7347 7.27298C15.1944 8.31823 16.9816 8.93321 18.9122 8.93321V6.0026C17.8346 5.77254 16.8806 5.20824 16.1633 4.42329C14.9356 3.65548 14.051 2.38887 13.7916 0.906372H11.0851V15.777C11.079 17.5106 9.67506 18.9143 7.94373 18.9143C6.92357 18.9143 6.01717 18.427 5.44318 17.672C4.41818 17.1536 3.71521 16.0892 3.71521 14.8601C3.71521 13.1217 5.12146 11.7122 6.85646 11.7122C7.18889 11.7122 7.50928 11.764 7.80982 11.8596V8.89694C4.08389 8.97409 1.0874 12.0249 1.0874 15.7771C1.0874 17.6501 1.83357 19.3481 3.04467 20.5888C4.13725 21.3239 5.45248 21.7528 6.86764 21.7528C10.6602 21.7528 13.7348 18.6717 13.7348 14.8709L13.7347 7.27298Z" fill="black"/>
<path d="M18.9121 6.00252V5.21028C17.9403 5.21175 16.9877 4.93903 16.1632 4.42328C16.893 5.224 17.8541 5.77617 18.9121 6.00268M13.7914 0.906292C13.7667 0.764638 13.7477 0.622036 13.7345 0.478839V0H9.9975V14.8708C9.99156 16.6043 8.58766 18.0079 6.85625 18.0079C6.36541 18.0087 5.88128 17.8936 5.44297 17.6721C6.01695 18.427 6.92336 18.9142 7.94351 18.9142C9.67476 18.9142 11.0788 17.5107 11.0849 15.7771V0.90637L13.7914 0.906292ZM7.80984 8.89686V8.05331C7.49757 8.01051 7.18275 7.9891 6.86758 7.98923C3.07461 7.98923 0 11.0703 0 14.8708C0 17.2535 1.20836 19.3534 3.04461 20.5886C1.83352 19.348 1.08734 17.65 1.08734 15.777C1.08734 12.0249 4.08375 8.97401 7.80984 8.89686Z" fill="#00F2EA"/>
</g>
<defs>
<clipPath id="clip0_329_1478">
<rect width="20" height="22.716" fill="white"/>
</clipPath>
</defs>
</svg>
